<svg xmlns="http://www.w3.org/2000/svg" width="164.236" height="34.022" viewBox="0 0 164.236 34.022">
  <g id="Group_271" data-name="Group 271" transform="translate(-140 -49.942)">
    <g id="logo">
      <rect id="Rectangle_4" data-name="Rectangle 4" width="55.534" height="33.964" transform="translate(140 50)" fill="#4351ee"/>
      <g id="Group_12" data-name="Group 12" transform="translate(-0.987 0.942)">
        <path id="Path_16" data-name="Path 16" d="M643.237,503.014a5.746,5.746,0,0,1,2.248.4,3.556,3.556,0,0,1,1.5,1.116,2.637,2.637,0,0,1,.537,1.636,2.555,2.555,0,0,1-.438,1.471,3.005,3.005,0,0,1-1.1.991,3.256,3.256,0,0,1,.958.438,2.436,2.436,0,0,1,.76.809,2.491,2.491,0,0,1,.3,1.281,2.8,2.8,0,0,1-.562,1.693,3.91,3.91,0,0,1-1.57,1.231,5.573,5.573,0,0,1-2.346.463q-.727,0-1.57-.058t-1.6-.165q-.76-.108-1.289-.224V503.427a18.172,18.172,0,0,1,2-.305Q642.129,503.014,643.237,503.014Zm0,2.1a9.694,9.694,0,0,0-1.883.165v2.677h2.065a1.993,1.993,0,0,0,1.331-.413,1.325,1.325,0,0,0,.487-1.057,1.124,1.124,0,0,0-.587-1.016A2.679,2.679,0,0,0,643.237,505.113Zm-1.883,7.172a6.115,6.115,0,0,0,1.066.157c.4.028.725.041.967.041a2.974,2.974,0,0,0,1.578-.38,1.194,1.194,0,0,0,.62-1.074,1.1,1.1,0,0,0-.645-1.033,3.3,3.3,0,0,0-1.553-.339h-2.032Z" transform="translate(-431.663 -453.452)" fill="#fff"/>
        <path id="Path_17" data-name="Path 17" d="M667.238,509.412a3.307,3.307,0,0,1,1.372.314,3.347,3.347,0,0,1,1.157.843v-.942h2.1v8.346h-2.1v-1.4a3.365,3.365,0,0,1-1.058,1.165,2.745,2.745,0,0,1-1.619.488,3.537,3.537,0,0,1-1.859-.512,3.682,3.682,0,0,1-1.364-1.487,5.7,5.7,0,0,1,.009-4.743,3.814,3.814,0,0,1,1.4-1.529A3.7,3.7,0,0,1,667.238,509.412Zm.429,2.049a1.888,1.888,0,0,0-1.132.339,2.311,2.311,0,0,0-.735.884,2.655,2.655,0,0,0-.264,1.173,2.374,2.374,0,0,0,.57,1.6,1.9,1.9,0,0,0,1.513.661,1.981,1.981,0,0,0,1.049-.3,2.271,2.271,0,0,0,.793-.834,2.588,2.588,0,0,0,.306-1.3V512.5a3.784,3.784,0,0,0-.967-.76A2.35,2.35,0,0,0,667.667,511.461Z" transform="translate(-445.418 -457.074)" fill="#fff"/>
        <path id="Path_18" data-name="Path 18" d="M696.087,501.719v11.9h-2.1v-1.4a3.361,3.361,0,0,1-1.057,1.165,2.746,2.746,0,0,1-1.619.488,3.538,3.538,0,0,1-1.859-.512,3.684,3.684,0,0,1-1.363-1.487,5.7,5.7,0,0,1,.008-4.743,3.814,3.814,0,0,1,1.4-1.529,3.7,3.7,0,0,1,1.958-.537,3.534,3.534,0,0,1,2.528,1.157v-4.495Zm-4.2,5.4a1.893,1.893,0,0,0-1.132.338,2.334,2.334,0,0,0-.735.876,2.6,2.6,0,0,0-.265,1.165,2.374,2.374,0,0,0,.57,1.6,1.9,1.9,0,0,0,1.512.661,1.981,1.981,0,0,0,1.05-.3,2.272,2.272,0,0,0,.793-.834,2.587,2.587,0,0,0,.305-1.3v-1.19a3.63,3.63,0,0,0-.966-.752A2.41,2.41,0,0,0,691.89,507.123Z" transform="translate(-459.131 -452.719)" fill="#fff"/>
        <path id="Path_19" data-name="Path 19" d="M715.684,509.412a3.305,3.305,0,0,1,1.372.314,3.341,3.341,0,0,1,1.157.843v-.942h2.1v8.346h-2.1v-1.4a3.364,3.364,0,0,1-1.057,1.165,2.747,2.747,0,0,1-1.62.488,3.537,3.537,0,0,1-1.859-.512,3.685,3.685,0,0,1-1.364-1.487,5.7,5.7,0,0,1,.009-4.743,3.816,3.816,0,0,1,1.4-1.529A3.7,3.7,0,0,1,715.684,509.412Zm.429,2.049a1.889,1.889,0,0,0-1.132.339,2.31,2.31,0,0,0-.735.884,2.65,2.65,0,0,0-.265,1.173,2.374,2.374,0,0,0,.57,1.6,1.9,1.9,0,0,0,1.512.661,1.982,1.982,0,0,0,1.05-.3,2.273,2.273,0,0,0,.793-.834,2.586,2.586,0,0,0,.306-1.3V512.5a3.781,3.781,0,0,0-.966-.76A2.352,2.352,0,0,0,716.113,511.461Z" transform="translate(-472.844 -457.074)" fill="#fff"/>
        <path id="Path_20" data-name="Path 20" d="M739.454,501.719v7.271l3.4-3.719h2.628l-3.6,3.619,3.784,4.726h-2.644L740.5,510.3l-1.041,1.041v2.281h-2.1v-11.9Z" transform="translate(-487.31 -452.719)" fill="#fff"/>
        <path id="Path_21" data-name="Path 21" d="M764.3,505.057a2.893,2.893,0,0,1,2.132.86,3.5,3.5,0,0,1,.859,2.578v5.123h-2.1l-.017-4.842a1.732,1.732,0,0,0-.4-1.256,1.491,1.491,0,0,0-1.115-.413,1.72,1.72,0,0,0-1.05.364,3.733,3.733,0,0,0-.835.859v5.288h-2.1v-11.9h2.1v4.742a4.265,4.265,0,0,1,1.033-.958A2.589,2.589,0,0,1,764.3,505.057Z" transform="translate(-499.945 -452.719)" fill="#fff"/>
        <path id="Path_22" data-name="Path 22" d="M784.753,509.412a4.327,4.327,0,0,1,1.438.231,3.4,3.4,0,0,1,1.025.529v1.851a6.219,6.219,0,0,0-.967-.512,2.929,2.929,0,0,0-1.181-.248,1.519,1.519,0,0,0-.942.264.775.775,0,0,0-.347.628.716.716,0,0,0,.2.487,1.653,1.653,0,0,0,.76.389l.942.314a2.232,2.232,0,0,1,1.9,2.2,2.29,2.29,0,0,1-.438,1.38,3,3,0,0,1-1.173.95,3.77,3.77,0,0,1-1.628.347,5.145,5.145,0,0,1-1.636-.264,4.267,4.267,0,0,1-1.206-.578v-1.835a4.8,4.8,0,0,0,.76.413,5.857,5.857,0,0,0,.925.322,3.49,3.49,0,0,0,.876.124,1.752,1.752,0,0,0,.967-.223.717.717,0,0,0,.339-.636.564.564,0,0,0-.281-.5,3.788,3.788,0,0,0-.827-.363l-1.024-.364a2.349,2.349,0,0,1-1.322-.893,2.527,2.527,0,0,1-.364-1.372,2.369,2.369,0,0,1,.4-1.38,2.75,2.75,0,0,1,1.132-.926A3.915,3.915,0,0,1,784.753,509.412Z" transform="translate(-512.299 -457.074)" fill="#fff"/>
        <path id="Path_23" data-name="Path 23" d="M804.253,505.057a2.893,2.893,0,0,1,2.132.86,3.5,3.5,0,0,1,.86,2.578v5.123h-2.1l-.016-4.842a1.733,1.733,0,0,0-.4-1.256,1.492,1.492,0,0,0-1.116-.413,1.721,1.721,0,0,0-1.05.364,3.733,3.733,0,0,0-.834.859v5.288h-2.1v-11.9h2.1v4.742a4.262,4.262,0,0,1,1.033-.958A2.588,2.588,0,0,1,804.253,505.057Z" transform="translate(-522.562 -452.719)" fill="#fff"/>
        <path id="Path_24" data-name="Path 24" d="M825.294,509.412a3.534,3.534,0,0,1,2.528,1.157v-.942h2.1v8.346h-2.1v-1.4a3.365,3.365,0,0,1-1.057,1.165,2.746,2.746,0,0,1-1.619.488,3.538,3.538,0,0,1-1.859-.512,3.685,3.685,0,0,1-1.363-1.487,5.7,5.7,0,0,1,.008-4.743,3.813,3.813,0,0,1,1.4-1.529A3.7,3.7,0,0,1,825.294,509.412Zm.43,2.049a1.89,1.89,0,0,0-1.132.339,2.314,2.314,0,0,0-.735.884,2.657,2.657,0,0,0-.264,1.173,2.373,2.373,0,0,0,.57,1.6,1.9,1.9,0,0,0,1.512.661,1.981,1.981,0,0,0,1.05-.3,2.271,2.271,0,0,0,.793-.834,2.586,2.586,0,0,0,.305-1.3V512.5a3.772,3.772,0,0,0-.966-.76A2.351,2.351,0,0,0,825.724,511.461Z" transform="translate(-534.895 -457.074)" fill="#fff"/>
        <path id="Path_25" data-name="Path 25" d="M849.066,509.627v1.19a4.263,4.263,0,0,1,1.033-.958,2.588,2.588,0,0,1,1.5-.446,2.894,2.894,0,0,1,2.132.86,3.5,3.5,0,0,1,.859,2.578v5.123h-2.1l-.016-4.842a1.732,1.732,0,0,0-.4-1.256,1.491,1.491,0,0,0-1.116-.413,1.721,1.721,0,0,0-1.05.364,3.729,3.729,0,0,0-.834.859v5.288h-2.1v-8.346Z" transform="translate(-549.362 -457.074)" fill="#fff"/>
        <path id="Path_26" data-name="Path 26" d="M641.353,543.623v9.006h5.536V554.7h-7.833V543.623Z" transform="translate(-431.663 -475.701)" fill="#fff"/>
        <path id="Path_27" data-name="Path 27" d="M665.029,549.412a3.305,3.305,0,0,1,1.372.314,3.345,3.345,0,0,1,1.157.843v-.942h2.1v8.346h-2.1v-1.4a3.363,3.363,0,0,1-1.058,1.165,2.745,2.745,0,0,1-1.619.488,3.536,3.536,0,0,1-1.859-.512,3.681,3.681,0,0,1-1.364-1.487,5.7,5.7,0,0,1,.009-4.743,3.816,3.816,0,0,1,1.4-1.529A3.7,3.7,0,0,1,665.029,549.412Zm.43,2.049a1.888,1.888,0,0,0-1.132.339,2.31,2.31,0,0,0-.735.884,2.655,2.655,0,0,0-.264,1.173,2.373,2.373,0,0,0,.57,1.6,1.9,1.9,0,0,0,1.512.661,1.98,1.98,0,0,0,1.05-.3,2.273,2.273,0,0,0,.793-.834,2.592,2.592,0,0,0,.305-1.3V552.5a3.784,3.784,0,0,0-.967-.76A2.348,2.348,0,0,0,665.459,551.461Z" transform="translate(-444.168 -478.978)" fill="#fff"/>
        <path id="Path_28" data-name="Path 28" d="M691.477,549.412a3.556,3.556,0,0,1,1.843.5,3.7,3.7,0,0,1,1.371,1.47,4.9,4.9,0,0,1,.521,2.355,5.153,5.153,0,0,1-.521,2.4,3.8,3.8,0,0,1-1.4,1.546,3.7,3.7,0,0,1-1.959.537,3.093,3.093,0,0,1-1.379-.338,3.786,3.786,0,0,1-1.149-.851v4.908h-2.1V549.627h2.1v1.4a3.229,3.229,0,0,1,1.058-1.149A2.81,2.81,0,0,1,691.477,549.412Zm-.529,2.1a2.065,2.065,0,0,0-1.057.289,2.192,2.192,0,0,0-.8.818,2.388,2.388,0,0,0-.289,1.272V555.1a4.547,4.547,0,0,0,.967.768,2.2,2.2,0,0,0,1.132.305,1.863,1.863,0,0,0,1.124-.347,2.332,2.332,0,0,0,.744-.9,2.705,2.705,0,0,0,.264-1.181,2.312,2.312,0,0,0-.57-1.587A1.922,1.922,0,0,0,690.948,551.511Z" transform="translate(-458.635 -478.978)" fill="#fff"/>
        <path id="Path_29" data-name="Path 29" d="M713.294,544.237v8.346h-2.1v-6.561h-1.339v-1.785Zm-1.223-4.346a1.414,1.414,0,0,1,1.025.421,1.369,1.369,0,0,1,0,1.992,1.4,1.4,0,0,1-1.025.43,1.414,1.414,0,0,1-1.016-2.421A1.386,1.386,0,0,1,712.072,539.891Z" transform="translate(-471.744 -473.588)" fill="#fff"/>
        <path id="Path_30" data-name="Path 30" d="M725.834,549.412a4.332,4.332,0,0,1,1.438.231,3.4,3.4,0,0,1,1.024.529v1.851a6.209,6.209,0,0,0-.967-.512,2.93,2.93,0,0,0-1.181-.248,1.519,1.519,0,0,0-.942.264.774.774,0,0,0-.347.628.716.716,0,0,0,.2.487,1.654,1.654,0,0,0,.76.389l.942.314a2.231,2.231,0,0,1,1.9,2.2,2.29,2.29,0,0,1-.438,1.38,3,3,0,0,1-1.173.95,3.769,3.769,0,0,1-1.628.347,5.146,5.146,0,0,1-1.636-.264,4.264,4.264,0,0,1-1.206-.578v-1.835a4.839,4.839,0,0,0,.76.413,5.859,5.859,0,0,0,.925.322,3.494,3.494,0,0,0,.876.124,1.751,1.751,0,0,0,.967-.223.717.717,0,0,0,.339-.636.564.564,0,0,0-.281-.5,3.781,3.781,0,0,0-.827-.363l-1.024-.364a2.348,2.348,0,0,1-1.322-.893,2.525,2.525,0,0,1-.364-1.372,2.369,2.369,0,0,1,.4-1.38,2.75,2.75,0,0,1,1.132-.926A3.915,3.915,0,0,1,725.834,549.412Z" transform="translate(-478.945 -478.978)" fill="#fff"/>
      </g>
    </g>
  </g>
</svg>
